<svg width="21" height="20" viewBox="0 0 21 20" fill="none" xmlns="http://www.w3.org/2000/svg">
<path d="M4.35 15.0999C5.2 14.4499 6.15 13.9374 7.2 13.5624C8.25 13.1874 9.35 12.9999 10.5 12.9999C11.65 12.9999 12.75 13.1874 13.8 13.5624C14.85 13.9374 15.8 14.4499 16.65 15.0999C17.2333 14.4166 17.6875 13.6416 18.0125 12.7749C18.3375 11.9083 18.5 10.9833 18.5 9.99994C18.5 7.78327 17.7208 5.89577 16.1625 4.33744C14.6042 2.77911 12.7167 1.99994 10.5 1.99994C8.28333 1.99994 6.39583 2.77911 4.8375 4.33744C3.27917 5.89577 2.5 7.78327 2.5 9.99994C2.5 10.9833 2.6625 11.9083 2.9875 12.7749C3.3125 13.6416 3.76667 14.4166 4.35 15.0999ZM10.5 10.9999C9.51667 10.9999 8.6875 10.6624 8.0125 9.98744C7.3375 9.31244 7 8.48327 7 7.49994C7 6.51661 7.3375 5.68744 8.0125 5.01244C8.6875 4.33744 9.51667 3.99994 10.5 3.99994C11.4833 3.99994 12.3125 4.33744 12.9875 5.01244C13.6625 5.68744 14 6.51661 14 7.49994C14 8.48327 13.6625 9.31244 12.9875 9.98744C12.3125 10.6624 11.4833 10.9999 10.5 10.9999ZM10.5 19.9999C9.11667 19.9999 7.81667 19.7374 6.6 19.2124C5.38333 18.6874 4.325 17.9749 3.425 17.0749C2.525 16.1749 1.8125 15.1166 1.2875 13.8999C0.7625 12.6833 0.5 11.3833 0.5 9.99994C0.5 8.61661 0.7625 7.31661 1.2875 6.09994C1.8125 4.88327 2.525 3.82494 3.425 2.92494C4.325 2.02494 5.38333 1.31244 6.6 0.787439C7.81667 0.262439 9.11667 -6.10352e-05 10.5 -6.10352e-05C11.8833 -6.10352e-05 13.1833 0.262439 14.4 0.787439C15.6167 1.31244 16.675 2.02494 17.575 2.92494C18.475 3.82494 19.1875 4.88327 19.7125 6.09994C20.2375 7.31661 20.5 8.61661 20.5 9.99994C20.5 11.3833 20.2375 12.6833 19.7125 13.8999C19.1875 15.1166 18.475 16.1749 17.575 17.0749C16.675 17.9749 15.6167 18.6874 14.4 19.2124C13.1833 19.7374 11.8833 19.9999 10.5 19.9999Z" fill="#1D1B20"/>
</svg>
