<svg width="61" height="60" viewBox="0 0 61 60" fill="none" xmlns="http://www.w3.org/2000/svg">
<rect x="0.5" width="60" height="60" rx="30" fill="url(#paint0_linear_1883_6981)"/>
<path fill-rule="evenodd" clip-rule="evenodd" d="M30.4998 16.3784C30.1449 16.3784 29.794 16.4546 29.4711 16.602C29.1482 16.7494 28.8607 16.9646 28.6282 17.2328C28.3956 17.501 28.2235 17.8161 28.1234 18.1567C28.0233 18.4972 27.9976 18.8554 28.048 19.2067C26.2529 19.7361 24.6773 20.8322 23.5568 22.3313C22.4363 23.8303 21.8311 25.6518 21.8316 27.5233V37.4298H20.5933C20.2649 37.4298 19.9499 37.5603 19.7177 37.7925C19.4854 38.0247 19.355 38.3397 19.355 38.6681C19.355 38.9966 19.4854 39.3115 19.7177 39.5438C19.9499 39.776 20.2649 39.9065 20.5933 39.9065H40.4064C40.7348 39.9065 41.0498 39.776 41.282 39.5438C41.5142 39.3115 41.6447 38.9966 41.6447 38.6681C41.6447 38.3397 41.5142 38.0247 41.282 37.7925C41.0498 37.5603 40.7348 37.4298 40.4064 37.4298H39.1681V27.5233C39.1686 25.6518 38.5633 23.8303 37.4428 22.3313C36.3224 20.8322 34.7468 19.7361 32.9517 19.2067C32.9682 19.0912 32.9765 18.9739 32.9765 18.8551C32.9765 18.1982 32.7155 17.5683 32.2511 17.1038C31.7866 16.6393 31.1567 16.3784 30.4998 16.3784ZM32.9765 42.3831C32.9765 42.7115 32.846 43.0265 32.6138 43.2587C32.3816 43.4909 32.0666 43.6214 31.7382 43.6214H29.2615C28.9331 43.6214 28.6181 43.4909 28.3859 43.2587C28.1537 43.0265 28.0232 42.7115 28.0232 42.3831C28.0232 42.0547 28.1537 41.7397 28.3859 41.5075C28.6181 41.2752 28.9331 41.1448 29.2615 41.1448H31.7382C32.0666 41.1448 32.3816 41.2752 32.6138 41.5075C32.846 41.7397 32.9765 42.0547 32.9765 42.3831Z" fill="white"/>
<defs>
<linearGradient id="paint0_linear_1883_6981" x1="30.5" y1="-11.4953" x2="30.5" y2="104.86" gradientUnits="userSpaceOnUse">
<stop stop-color="#C28FEF"/>
<stop offset="1" stop-color="#1D6EE1"/>
</linearGradient>
</defs>
</svg>
